<?xml version="1.0" encoding="UTF-8" standalone="no"?>
<!-- Created with Inkscape (http://www.inkscape.org/) -->

<svg
   width="137.41277mm"
   height="31.696299mm"
   viewBox="0 0 137.41277 31.696299"
   version="1.1"
   id="svg5"
   inkscape:version="1.2.1 (9c6d41e410, 2022-07-14)"
   sodipodi:docname="logo.svg"
   xml:space="preserve"
   inkscape:export-filename="final2.png"
   inkscape:export-xdpi="300"
   inkscape:export-ydpi="300"
   xmlns:inkscape="http://www.inkscape.org/namespaces/inkscape"
   xmlns:sodipodi="http://sodipodi.sourceforge.net/DTD/sodipodi-0.dtd"
   xmlns="http://www.w3.org/2000/svg"
   xmlns:svg="http://www.w3.org/2000/svg"><sodipodi:namedview
     id="namedview7"
     pagecolor="#030303"
     bordercolor="#ffffff"
     borderopacity="1"
     inkscape:showpageshadow="0"
     inkscape:pageopacity="0"
     inkscape:pagecheckerboard="false"
     inkscape:deskcolor="#4f4f4f"
     inkscape:document-units="mm"
     showgrid="false"
     inkscape:zoom="0.86875"
     inkscape:cx="288.92086"
     inkscape:cy="273.95683"
     inkscape:window-width="1366"
     inkscape:window-height="745"
     inkscape:window-x="-8"
     inkscape:window-y="-8"
     inkscape:window-maximized="1"
     inkscape:current-layer="layer1"
     showborder="false"
     borderlayer="true" /><defs
     id="defs2" /><g
     inkscape:label="Layer 1"
     inkscape:groupmode="layer"
     id="layer1"
     transform="translate(660.88163,-1799.1107)"><path
       class="st1"
       d="m -634.9622,1807.0482 v 14.2521 h -7.91922 v -22.1725 0 c 4.37356,0 7.91922,3.5456 7.91922,7.9204 z"
       id="path23109"
       style="fill:#7161ef;fill-opacity:1;stroke-width:0.264584"
       inkscape:export-filename=".\logoo.svg"
       inkscape:export-xdpi="300"
       inkscape:export-ydpi="300" /><path
       class="st1"
       d="m -645.04198,1799.1278 v 31.6792 h -15.83966 v 0 c 0,-4.3735 3.54566,-7.9192 7.91922,-7.9192 v 0 -23.76 z"
       id="path23113"
       style="fill:#7161ef;fill-opacity:1;stroke-width:0.264584" /><path
       class="st1"
       d="m -619.12254,1799.1278 v 31.6792 h -23.75888 v -7.9204 h 15.83844 v -15.8384 c 0,-4.3748 3.54566,-7.9204 7.92044,-7.9204 z"
       id="path23117"
       style="fill:#7161ef;fill-opacity:1;stroke-width:0.264584" /><path
       class="st1"
       d="m -523.46886,1830.7888 v 0 h -15.83966 v -31.6781 h 7.91923 v 23.7588 0 c 4.37477,0 7.92043,3.5457 7.92043,7.9193 z"
       id="path23135"
       style="fill:#957fef;fill-opacity:1;stroke-width:0.264584" /><path
       class="st1"
       d="m -593.20432,1799.1326 v 23.7369 h -15.82625 v 0.022 c -0.006,2.1788 -0.89129,4.1492 -2.31906,5.5794 -1.43388,1.4326 -3.41277,2.319 -5.60137,2.319 v -15.8189 h 15.82624 v -0.022 h 0.0122 v -7.9192 H -616.951 c 0,-1.2156 0.27434,-2.3678 0.76327,-3.3993 0.0354,-0.069 0.0683,-0.1378 0.10242,-0.2061 0.11217,-0.2195 0.23532,-0.4341 0.36944,-0.6414 0.078,-0.1207 0.15851,-0.2389 0.2402,-0.3548 0.001,-0.01 0.005,-0.01 0.006,-0.01 0.039,-0.055 0.0805,-0.1097 0.12193,-0.1633 0.0317,-0.041 0.0634,-0.081 0.0951,-0.1207 0.0146,-0.019 0.028,-0.038 0.0439,-0.057 0.0866,-0.1073 0.17558,-0.2134 0.26946,-0.3183 0.0951,-0.106 0.19264,-0.2085 0.29506,-0.3109 1.43387,-1.4327 3.41521,-2.319 5.60137,-2.319 h 15.83844 z"
       id="path23143"
       style="fill:#7161ef;fill-opacity:1;stroke-width:0.264584" /><path
       class="st1"
       d="m -583.22696,1807.0299 v 7.9192 h 15.83966 v 15.8397 0 c -4.37356,0 -7.91922,-3.5457 -7.91922,-7.9193 v 0 h -15.83966 v -23.7588 h 15.83966 c 4.37355,0 7.91922,3.5457 7.91922,7.9192 v 0 z"
       id="path23139"
       style="fill:#957fef;fill-opacity:1;stroke-width:0.264584" /><path
       class="st1"
       d="m -565.22673,1799.1143 v 31.6745 h 23.75887 v -31.6745 z m 15.83843,23.7552 h -7.91922 v -15.8347 h 7.91922 z"
       id="path23151"
       style="fill:#957fef;fill-opacity:1;stroke-width:0.264584" /></g><style
     type="text/css"
     id="style2131">
	.st0{fill:none;stroke:#000000;stroke-miterlimit:10;}
	.st1{fill-rule:evenodd;clip-rule:evenodd;}
</style><style
     type="text/css"
     id="style1132">
	.st0{fill:none;stroke:#000000;stroke-miterlimit:10;}
	.st1{fill-rule:evenodd;clip-rule:evenodd;}
</style></svg>
